<svg xmlns="http://www.w3.org/2000/svg" width="885" height="147" viewBox="0 0 885 147" role="img" aria-label="Combined GitHub Activity Overview">
  <style>
    svg {
      --fg: #24292f;
      --fg-muted: #57606a;
      --divider: #d0d7de;
      --level-0: #ebedf0;
      --level-1: #9be9a8;
      --level-2: #40c463;
      --level-3: #30a14e;
      --level-4: #216e39;
    }
    @media (prefers-color-scheme: dark) {
      svg {
        --fg: #f0f6fc;
        --fg-muted: #8b949e;
        --divider: #30363d;
        --level-0: #161b22;
        --level-1: #0e4429;
        --level-2: #006d32;
        --level-3: #26a641;
        --level-4: #39d353;
      }
    }
    text { font-family: ui-sans-serif, system-ui, -apple-system, BlinkMacSystemFont, 'Segoe UI', sans-serif; }
    .fg { fill: var(--fg); }
    .fg-muted { fill: var(--fg-muted); }
    .divider { stroke: var(--divider); fill: none; }
    .level-0 { fill: var(--level-0); }
    .level-1 { fill: var(--level-1); }
    .level-2 { fill: var(--level-2); }
    .level-3 { fill: var(--level-3); }
    .level-4 { fill: var(--level-4); }
  </style>
  <title>Combined GitHub Activity Overview</title>
  <desc>Weekly activity rhythm for tnfssc, sharath-w, mykonos-ibiza over 365 days. 828 commits, 154 PRs, 6 issues, 10 reviews. 4,829 total contributions. GitHub reports 3,810 private contributions in this window, so commits, PRs, issues, and reviews may not add up to the total.</desc>
  <text class="fg-muted" x="20" y="14" font-size="10">@tnfssc · @sharath-w · @mykonos-ibiza</text>
  <text class="fg-muted" x="865" y="14" font-size="10" text-anchor="end">365-day window</text>
  <rect class="level-1" x="20" y="85" width="13" height="3" rx="1" ry="1"><title>Week of 2025-07-20: 6 contributions</title></rect><rect class="level-1" x="36" y="82" width="13" height="6" rx="1" ry="1"><title>Week of 2025-07-27: 51 contributions</title></rect><text class="fg-muted" x="36" y="102" font-size="10">Aug</text><rect class="level-1" x="52" y="83" width="13" height="5" rx="1" ry="1"><title>Week of 2025-08-03: 42 contributions</title></rect><rect class="level-1" x="68" y="82" width="13" height="6" rx="1" ry="1"><title>Week of 2025-08-10: 51 contributions</title></rect><rect class="level-1" x="84" y="83" width="13" height="5" rx="1" ry="1"><title>Week of 2025-08-17: 41 contributions</title></rect><rect class="level-4" x="100" y="73" width="13" height="15" rx="1" ry="1"><title>Week of 2025-08-24: 116 contributions</title></rect><rect class="level-1" x="116" y="84" width="13" height="4" rx="1" ry="1"><title>Week of 2025-08-31: 35 contributions</title></rect><text class="fg-muted" x="116" y="102" font-size="10">Sep</text><rect class="level-1" x="132" y="83" width="13" height="5" rx="1" ry="1"><title>Week of 2025-09-07: 36 contributions</title></rect><rect class="level-1" x="148" y="85" width="13" height="3" rx="1" ry="1"><title>Week of 2025-09-14: 18 contributions</title></rect><rect class="level-1" x="164" y="82" width="13" height="6" rx="1" ry="1"><title>Week of 2025-09-21: 47 contributions</title></rect><rect class="level-1" x="180" y="82" width="13" height="6" rx="1" ry="1"><title>Week of 2025-09-28: 44 contributions</title></rect><text class="fg-muted" x="180" y="102" font-size="10">Oct</text><rect class="level-3" x="196" y="76" width="13" height="12" rx="1" ry="1"><title>Week of 2025-10-05: 94 contributions</title></rect><rect class="level-3" x="212" y="78" width="13" height="10" rx="1" ry="1"><title>Week of 2025-10-12: 78 contributions</title></rect><rect class="level-2" x="228" y="81" width="13" height="7" rx="1" ry="1"><title>Week of 2025-10-19: 58 contributions</title></rect><rect class="level-4" x="244" y="74" width="13" height="14" rx="1" ry="1"><title>Week of 2025-10-26: 108 contributions</title></rect><text class="fg-muted" x="244" y="102" font-size="10">Nov</text><rect class="level-1" x="260" y="85" width="13" height="3" rx="1" ry="1"><title>Week of 2025-11-02: 27 contributions</title></rect><rect class="level-2" x="276" y="81" width="13" height="7" rx="1" ry="1"><title>Week of 2025-11-09: 57 contributions</title></rect><rect class="level-4" x="292" y="67" width="13" height="21" rx="1" ry="1"><title>Week of 2025-11-16: 163 contributions</title></rect><rect class="level-3" x="308" y="78" width="13" height="10" rx="1" ry="1"><title>Week of 2025-11-23: 81 contributions</title></rect><rect class="level-2" x="324" y="80" width="13" height="8" rx="1" ry="1"><title>Week of 2025-11-30: 63 contributions</title></rect><text class="fg-muted" x="324" y="102" font-size="10">Dec</text><rect class="level-3" x="340" y="77" width="13" height="11" rx="1" ry="1"><title>Week of 2025-12-07: 90 contributions</title></rect><rect class="level-2" x="356" y="80" width="13" height="8" rx="1" ry="1"><title>Week of 2025-12-14: 65 contributions</title></rect><rect class="level-1" x="372" y="84" width="13" height="4" rx="1" ry="1"><title>Week of 2025-12-21: 34 contributions</title></rect><rect class="level-1" x="388" y="85" width="13" height="3" rx="1" ry="1"><title>Week of 2025-12-28: 19 contributions</title></rect><text class="fg-muted" x="388" y="102" font-size="10">Jan</text><rect class="level-2" x="404" y="79" width="13" height="9" rx="1" ry="1"><title>Week of 2026-01-04: 72 contributions</title></rect><rect class="level-2" x="420" y="80" width="13" height="8" rx="1" ry="1"><title>Week of 2026-01-11: 62 contributions</title></rect><rect class="level-3" x="436" y="78" width="13" height="10" rx="1" ry="1"><title>Week of 2026-01-18: 80 contributions</title></rect><rect class="level-2" x="452" y="79" width="13" height="9" rx="1" ry="1"><title>Week of 2026-01-25: 72 contributions</title></rect><rect class="level-4" x="468" y="73" width="13" height="15" rx="1" ry="1"><title>Week of 2026-02-01: 119 contributions</title></rect><text class="fg-muted" x="468" y="102" font-size="10">Feb</text><rect class="level-4" x="484" y="74" width="13" height="14" rx="1" ry="1"><title>Week of 2026-02-08: 108 contributions</title></rect><rect class="level-4" x="500" y="75" width="13" height="13" rx="1" ry="1"><title>Week of 2026-02-15: 104 contributions</title></rect><rect class="level-3" x="516" y="75" width="13" height="13" rx="1" ry="1"><title>Week of 2026-02-22: 100 contributions</title></rect><rect class="level-4" x="532" y="73" width="13" height="15" rx="1" ry="1"><title>Week of 2026-03-01: 117 contributions</title></rect><text class="fg-muted" x="532" y="102" font-size="10">Mar</text><rect class="level-3" x="548" y="78" width="13" height="10" rx="1" ry="1"><title>Week of 2026-03-08: 82 contributions</title></rect><rect class="level-3" x="564" y="75" width="13" height="13" rx="1" ry="1"><title>Week of 2026-03-15: 103 contributions</title></rect><rect class="level-3" x="580" y="76" width="13" height="12" rx="1" ry="1"><title>Week of 2026-03-22: 94 contributions</title></rect><rect class="level-2" x="596" y="79" width="13" height="9" rx="1" ry="1"><title>Week of 2026-03-29: 68 contributions</title></rect><text class="fg-muted" x="596" y="102" font-size="10">Apr</text><rect class="level-2" x="612" y="81" width="13" height="7" rx="1" ry="1"><title>Week of 2026-04-05: 53 contributions</title></rect><rect class="level-3" x="628" y="77" width="13" height="11" rx="1" ry="1"><title>Week of 2026-04-12: 84 contributions</title></rect><rect class="level-2" x="644" y="80" width="13" height="8" rx="1" ry="1"><title>Week of 2026-04-19: 67 contributions</title></rect><rect class="level-1" x="660" y="83" width="13" height="5" rx="1" ry="1"><title>Week of 2026-04-26: 36 contributions</title></rect><text class="fg-muted" x="660" y="102" font-size="10">May</text><rect class="level-2" x="676" y="81" width="13" height="7" rx="1" ry="1"><title>Week of 2026-05-03: 55 contributions</title></rect><rect class="level-4" x="692" y="74" width="13" height="14" rx="1" ry="1"><title>Week of 2026-05-10: 108 contributions</title></rect><rect class="level-3" x="708" y="78" width="13" height="10" rx="1" ry="1"><title>Week of 2026-05-17: 81 contributions</title></rect><rect class="level-1" x="724" y="84" width="13" height="4" rx="1" ry="1"><title>Week of 2026-05-24: 35 contributions</title></rect><rect class="level-2" x="740" y="80" width="13" height="8" rx="1" ry="1"><title>Week of 2026-05-31: 67 contributions</title></rect><text class="fg-muted" x="740" y="102" font-size="10">Jun</text><rect class="level-3" x="756" y="77" width="13" height="11" rx="1" ry="1"><title>Week of 2026-06-07: 86 contributions</title></rect><rect class="level-3" x="772" y="76" width="13" height="12" rx="1" ry="1"><title>Week of 2026-06-14: 94 contributions</title></rect><rect class="level-4" x="788" y="71" width="13" height="17" rx="1" ry="1"><title>Week of 2026-06-21: 137 contributions</title></rect><rect class="level-4" x="804" y="72" width="13" height="16" rx="1" ry="1"><title>Week of 2026-06-28: 124 contributions</title></rect><text class="fg-muted" x="804" y="102" font-size="10">Jul</text><rect class="level-4" x="820" y="45" width="13" height="43" rx="1" ry="1"><title>Week of 2026-07-05: 341 contributions</title></rect><rect class="level-4" x="836" y="28" width="13" height="60" rx="1" ry="1"><title>Week of 2026-07-12: 474 contributions</title></rect><rect class="level-4" x="852" y="40" width="13" height="48" rx="1" ry="1"><title>Week of 2026-07-19: 382 contributions</title></rect>
  <line class="divider" x1="20" y1="112" x2="865" y2="112" stroke-width="1" />
  <text x="20" y="128" font-size="11"><tspan class="fg" font-weight="600">828</tspan><tspan class="fg-muted"> commits</tspan><tspan class="fg-muted">  ·  </tspan><tspan class="fg" font-weight="600">154</tspan><tspan class="fg-muted"> PRs</tspan><tspan class="fg-muted">  ·  </tspan><tspan class="fg" font-weight="600">6</tspan><tspan class="fg-muted"> issues</tspan><tspan class="fg-muted">  ·  </tspan><tspan class="fg" font-weight="600">10</tspan><tspan class="fg-muted"> reviews</tspan><tspan class="fg-muted">  ·  </tspan><tspan class="fg" font-weight="600">4,829</tspan><tspan class="fg-muted"> total  ·  25-day streak</tspan></text>
  <text class="fg-muted" x="20" y="139" font-size="9">GitHub reports 3,810 private contributions in this window, so commits, PRs, issues, and reviews may not add up to the total.</text>
</svg>
